<svg width="428" height="428" viewBox="0 0 428 428" fill="none" xmlns="http://www.w3.org/2000/svg">
<g filter="url(#filter0_d_2_28)">
<path d="M213.911 377.125C184.268 377.125 155.25 369.179 129.982 354.179L124 350.607L61.6786 366.946L78.2857 306.143L74.3571 299.893C57.8393 273.643 49.1786 243.375 49.1786 212.214C49.1786 121.411 123.107 47.4821 214 47.4821C258.018 47.4821 299.357 64.625 330.429 95.7857C361.5 126.946 380.607 168.286 380.518 212.304C380.518 303.196 304.714 377.125 213.911 377.125Z" fill="#292E39"/>
<path fill-rule="evenodd" clip-rule="evenodd" d="M354.089 72.125C316.679 34.625 266.857 14 213.911 14C104.625 14 15.6964 102.929 15.6964 212.214C15.6964 247.125 24.8036 281.232 42.125 311.321L14 414L119.089 386.411C148.018 402.214 180.607 410.518 213.821 410.518H213.911C323.107 410.518 414 321.589 414 212.304C414 159.357 391.5 109.625 354.089 72.125ZM129.982 354.179C155.25 369.179 184.268 377.125 213.911 377.125C304.714 377.125 380.518 303.196 380.518 212.304C380.607 168.286 361.5 126.946 330.429 95.7857C299.357 64.625 258.018 47.4821 214 47.4821C123.107 47.4821 49.1786 121.411 49.1786 212.214C49.1786 243.375 57.8393 273.643 74.3571 299.893L78.2857 306.143L61.6786 366.946L124 350.607L129.982 354.179Z" fill="white"/>
<path d="M126.867 251.626C123.79 251.626 121.219 251.351 119.157 250.801C116.301 250.104 114.207 249.023 112.874 247.556C109.892 240.259 107.337 232.265 105.212 223.574C102.261 211.547 100.198 199.134 99.0242 186.337C100.452 183.917 102.403 182.046 104.878 180.726C107.353 179.37 110.114 178.691 113.16 178.691C117.729 178.691 121.315 179.7 123.916 181.716C126.55 183.733 127.867 186.612 127.867 190.352C127.645 193.139 127.439 197.227 127.248 202.618C127.089 208.008 127.01 212.885 127.01 217.249C127.01 218.459 127.105 219.412 127.296 220.109C127.518 220.769 127.962 221.099 128.628 221.099C128.882 221.099 129.2 221.044 129.58 220.934C129.549 220.604 129.533 220.054 129.533 219.284V217.359C129.533 212.042 129.691 205.918 130.009 198.988C130.326 192.02 130.707 186.832 131.151 183.422C134.038 181.368 137.434 180.341 141.336 180.341C145.239 180.341 148.38 180.965 150.76 182.211C153.616 183.752 155.123 186.007 155.282 188.977C155.123 192.571 154.822 196.109 154.377 199.593C153.965 203.076 153.457 207.091 152.854 211.638C152.252 216.185 151.871 219.192 151.712 220.659C151.966 220.806 152.299 220.879 152.712 220.879C153.124 220.879 153.505 220.696 153.854 220.329C154.203 219.962 154.488 219.082 154.711 217.689C155.694 211.822 156.503 205.643 157.138 199.153C157.773 192.626 158.185 186.942 158.375 182.101C161.295 179.828 165.324 178.691 170.465 178.691C174.621 178.691 177.937 179.975 180.412 182.541C182.887 185.072 184.124 188.482 184.124 192.772C184.124 195.632 182.95 203.131 180.602 215.269C179.397 221.649 178.239 227.113 177.128 231.66C176.017 236.17 175.113 239.342 174.415 241.175C172.955 244.879 170.766 247.556 167.847 249.206C164.959 250.819 161.263 251.626 156.757 251.626C154.949 251.626 152.854 251.314 150.475 250.691C148.127 250.068 146.334 249.371 145.096 248.601C144.462 247.464 143.748 245.741 142.955 243.431C142.161 241.12 141.67 239.379 141.479 238.205C140.242 238.242 139.623 239.012 139.623 240.515C139.623 241.689 140.115 243.852 141.098 247.006C137.767 250.086 133.023 251.626 126.867 251.626Z" fill="white"/>
<path d="M210.349 214.554C210.603 214.847 211 214.994 211.539 214.994C212.079 214.994 212.539 214.865 212.92 214.609C212.095 209.035 211.539 205.735 211.254 204.708C210.905 203.645 210.381 203.113 209.683 203.113C209.366 203.113 208.985 203.223 208.541 203.443L210.349 214.554ZM200.926 231.055C200.608 231.568 200.45 232.045 200.45 232.485C200.45 233.548 201.306 234.447 203.02 235.18C204.765 235.877 206.875 236.317 209.35 236.5C209.762 241.781 210.207 244.787 210.683 245.521C210.08 246.878 208.414 248.253 205.685 249.646C202.956 251.003 199.878 251.681 196.452 251.681C191.914 251.681 188.027 250.563 184.791 248.326C181.554 246.052 179.936 243.137 179.936 239.58C179.936 238.627 180.015 237.784 180.174 237.05L190.312 184.687C192.85 182.817 195.88 181.35 199.403 180.286C202.925 179.223 206.589 178.691 210.397 178.691C215.855 178.691 220.519 179.755 224.39 181.881C228.801 184.302 231.482 187.804 232.434 192.387L243.285 244.256C239.985 249.206 234.607 251.681 227.151 251.681C223.533 251.681 220.471 250.929 217.965 249.426C215.458 247.923 213.998 245.777 213.586 242.991L212.539 236.28C214.443 236.243 216.283 235.822 218.06 235.015C219.837 234.208 220.725 233.365 220.725 232.485C220.725 231.898 220.519 231.421 220.106 231.055C218.901 232.045 217.425 232.797 215.68 233.31C213.935 233.823 212.317 234.08 210.825 234.08C206.542 234.08 203.242 233.072 200.926 231.055Z" fill="white"/>
<path d="M271.367 213.784C271.493 213.894 271.858 213.949 272.461 213.949C273.064 213.949 273.524 213.674 273.842 213.124C274.159 212.574 274.317 211.675 274.317 210.428V206.248C274.317 204.928 274.175 203.993 273.889 203.443C273.635 202.856 273.191 202.563 272.556 202.563C271.954 202.563 271.541 202.636 271.319 202.783C271.351 202.966 271.367 203.278 271.367 203.718V213.784ZM272.556 238.645V247.061C271.16 248.418 269.193 249.536 266.655 250.416C264.116 251.259 261.467 251.681 258.706 251.681C254.772 251.681 251.551 250.801 249.044 249.041C246.189 247.024 244.761 244.109 244.761 240.295V188.042C244.761 186.868 245.443 185.695 246.807 184.522C248.204 183.348 250.123 182.285 252.566 181.331C257.802 179.278 263.783 178.251 270.51 178.251C279.807 178.251 287.216 180.928 292.737 186.282C298.258 191.635 301.018 198.841 301.018 207.898C301.018 216.919 298.528 223.941 293.546 228.965C288.755 233.732 282.107 236.115 273.604 236.115C271.668 236.115 269.59 235.858 267.369 235.345C265.179 234.795 263.704 234.318 262.942 233.915C262.688 234.208 262.561 234.612 262.561 235.125C262.561 236.995 265.893 238.169 272.556 238.645Z" fill="white"/>
<path d="M330.908 189.692V246.511C329.449 247.978 327.497 249.206 325.054 250.196C322.611 251.186 319.644 251.681 316.154 251.681C312.663 251.681 309.697 250.783 307.253 248.986C304.493 247.043 303.113 244.292 303.113 240.735V183.917C304.572 182.45 306.524 181.221 308.967 180.231C311.41 179.241 314.361 178.746 317.82 178.746C321.278 178.746 324.277 179.626 326.815 181.386C329.544 183.403 330.908 186.172 330.908 189.692Z" fill="white"/>
</g>
<defs>
<filter id="filter0_d_2_28" x="0" y="0" width="428" height="428" filterUnits="userSpaceOnUse" color-interpolation-filters="sRGB">
<feFlood flood-opacity="0" result="BackgroundImageFix"/>
<feColorMatrix in="SourceAlpha" type="matrix" values="0 0 0 0 0 0 0 0 0 0 0 0 0 0 0 0 0 0 127 0" result="hardAlpha"/>
<feOffset/>
<feGaussianBlur stdDeviation="7"/>
<feComposite in2="hardAlpha" operator="out"/>
<feColorMatrix type="matrix" values="0 0 0 0 0 0 0 0 0 0 0 0 0 0 0 0 0 0 0.25 0"/>
<feBlend mode="normal" in2="BackgroundImageFix" result="effect1_dropShadow_2_28"/>
<feBlend mode="normal" in="SourceGraphic" in2="effect1_dropShadow_2_28" result="shape"/>
</filter>
</defs>
</svg>
