<svg width="428" height="428" viewBox="0 0 428 428" fill="none" xmlns="http://www.w3.org/2000/svg">
<g filter="url(#filter0_d_2_27)">
<path d="M213.911 377.125C184.268 377.125 155.25 369.179 129.982 354.179L124 350.607L61.6786 366.946L78.2857 306.143L74.3571 299.893C57.8393 273.643 49.1786 243.375 49.1786 212.214C49.1786 121.411 123.107 47.4821 214 47.4821C258.018 47.4821 299.357 64.625 330.429 95.7857C361.5 126.946 380.607 168.286 380.518 212.304C380.518 303.196 304.714 377.125 213.911 377.125Z" fill="#25D366"/>
<path fill-rule="evenodd" clip-rule="evenodd" d="M354.089 72.125C316.679 34.625 266.857 14 213.911 14C104.625 14 15.6964 102.929 15.6964 212.214C15.6964 247.125 24.8036 281.232 42.125 311.321L14 414L119.089 386.411C148.018 402.214 180.607 410.518 213.821 410.518H213.911C323.107 410.518 414 321.589 414 212.304C414 159.357 391.5 109.625 354.089 72.125ZM129.982 354.179C155.25 369.179 184.268 377.125 213.911 377.125C304.714 377.125 380.518 303.196 380.518 212.304C380.607 168.286 361.5 126.946 330.429 95.7857C299.357 64.625 258.018 47.4821 214 47.4821C123.107 47.4821 49.1786 121.411 49.1786 212.214C49.1786 243.375 57.8393 273.643 74.3571 299.893L78.2857 306.143L61.6786 366.946L124 350.607L129.982 354.179Z" fill="white"/>
<path d="M124.935 251.626C121.857 251.626 119.287 251.351 117.225 250.801C114.369 250.104 112.275 249.023 110.942 247.556C107.959 240.259 105.405 232.265 103.279 223.574C100.328 211.547 98.2658 199.134 97.0918 186.337C98.5196 183.917 100.471 182.046 102.946 180.726C105.421 179.37 108.181 178.691 111.228 178.691C115.797 178.691 119.382 179.7 121.984 181.716C124.618 183.733 125.935 186.612 125.935 190.352C125.712 193.139 125.506 197.227 125.316 202.618C125.157 208.008 125.078 212.885 125.078 217.249C125.078 218.459 125.173 219.412 125.363 220.109C125.585 220.769 126.03 221.099 126.696 221.099C126.95 221.099 127.267 221.044 127.648 220.934C127.616 220.604 127.6 220.054 127.6 219.284V217.359C127.6 212.042 127.759 205.918 128.076 198.988C128.394 192.02 128.774 186.832 129.219 183.422C132.106 181.368 135.501 180.341 139.404 180.341C143.307 180.341 146.448 180.965 148.828 182.211C151.684 183.752 153.191 186.007 153.349 188.977C153.191 192.571 152.889 196.109 152.445 199.593C152.033 203.076 151.525 207.091 150.922 211.638C150.319 216.185 149.938 219.192 149.78 220.659C150.034 220.806 150.367 220.879 150.779 220.879C151.192 220.879 151.572 220.696 151.922 220.329C152.271 219.962 152.556 219.082 152.778 217.689C153.762 211.822 154.571 205.643 155.206 199.153C155.84 192.626 156.253 186.942 156.443 182.101C159.362 179.828 163.392 178.691 168.532 178.691C172.689 178.691 176.005 179.975 178.48 182.542C180.955 185.072 182.192 188.482 182.192 192.772C182.192 195.632 181.018 203.131 178.67 215.269C177.464 221.649 176.306 227.113 175.196 231.66C174.085 236.17 173.181 239.342 172.483 241.175C171.023 244.879 168.834 247.556 165.915 249.206C163.027 250.819 159.331 251.626 154.825 251.626C153.016 251.626 150.922 251.314 148.542 250.691C146.194 250.068 144.401 249.371 143.164 248.601C142.529 247.464 141.815 245.741 141.022 243.431C140.229 241.12 139.737 239.379 139.547 238.205C138.309 238.242 137.691 239.012 137.691 240.515C137.691 241.689 138.182 243.852 139.166 247.006C135.834 250.086 131.091 251.626 124.935 251.626Z" fill="white"/>
<path d="M208.417 214.554C208.671 214.847 209.068 214.994 209.607 214.994C210.146 214.994 210.606 214.865 210.987 214.609C210.162 209.035 209.607 205.735 209.321 204.708C208.972 203.645 208.449 203.113 207.751 203.113C207.433 203.113 207.053 203.223 206.608 203.443L208.417 214.554ZM198.993 231.055C198.676 231.568 198.517 232.045 198.517 232.485C198.517 233.548 199.374 234.447 201.087 235.18C202.833 235.877 204.943 236.317 207.418 236.5C207.83 241.781 208.274 244.787 208.75 245.521C208.147 246.878 206.482 248.253 203.753 249.646C201.024 251.003 197.946 251.681 194.519 251.681C189.982 251.681 186.095 250.563 182.858 248.326C179.622 246.052 178.004 243.137 178.004 239.58C178.004 238.627 178.083 237.784 178.242 237.05L188.379 184.687C190.918 182.817 193.948 181.35 197.47 180.286C200.992 179.223 204.657 178.691 208.465 178.691C213.922 178.691 218.587 179.755 222.458 181.881C226.868 184.302 229.549 187.804 230.501 192.387L241.353 244.256C238.053 249.206 232.675 251.681 225.218 251.681C221.601 251.681 218.539 250.929 216.032 249.426C213.526 247.923 212.066 245.777 211.654 242.991L210.606 236.28C212.51 236.243 214.351 235.822 216.128 235.015C217.904 234.208 218.793 233.365 218.793 232.485C218.793 231.898 218.587 231.421 218.174 231.055C216.968 232.045 215.493 232.797 213.748 233.31C212.003 233.823 210.384 234.08 208.893 234.08C204.609 234.08 201.31 233.072 198.993 231.055Z" fill="white"/>
<path d="M269.434 213.784C269.561 213.894 269.926 213.949 270.529 213.949C271.132 213.949 271.592 213.674 271.909 213.124C272.226 212.574 272.385 211.675 272.385 210.428V206.248C272.385 204.928 272.242 203.993 271.957 203.443C271.703 202.856 271.259 202.563 270.624 202.563C270.021 202.563 269.609 202.636 269.387 202.783C269.418 202.966 269.434 203.278 269.434 203.718V213.784ZM270.624 238.645V247.061C269.228 248.418 267.261 249.536 264.722 250.416C262.184 251.259 259.534 251.681 256.774 251.681C252.839 251.681 249.619 250.801 247.112 249.041C244.256 247.024 242.828 244.109 242.828 240.295V188.042C242.828 186.868 243.511 185.695 244.875 184.522C246.271 183.348 248.191 182.285 250.634 181.331C255.87 179.278 261.851 178.251 268.577 178.251C277.874 178.251 285.283 180.928 290.804 186.282C296.326 191.635 299.086 198.841 299.086 207.898C299.086 216.919 296.595 223.941 291.614 228.965C286.822 233.732 280.175 236.115 271.671 236.115C269.736 236.115 267.657 235.858 265.436 235.345C263.247 234.795 261.771 234.318 261.01 233.915C260.756 234.208 260.629 234.612 260.629 235.125C260.629 236.995 263.961 238.169 270.624 238.645Z" fill="white"/>
<path d="M328.976 189.692V246.511C327.516 247.978 325.565 249.206 323.122 250.196C320.678 251.186 317.712 251.681 314.221 251.681C310.731 251.681 307.764 250.783 305.321 248.986C302.56 247.043 301.18 244.292 301.18 240.735V183.917C302.64 182.45 304.591 181.221 307.034 180.231C309.478 179.241 312.429 178.746 315.887 178.746C319.346 178.746 322.344 179.626 324.883 181.386C327.611 183.403 328.976 186.172 328.976 189.692Z" fill="white"/>
</g>
<defs>
<filter id="filter0_d_2_27" x="0" y="0" width="428" height="428" filterUnits="userSpaceOnUse" color-interpolation-filters="sRGB">
<feFlood flood-opacity="0" result="BackgroundImageFix"/>
<feColorMatrix in="SourceAlpha" type="matrix" values="0 0 0 0 0 0 0 0 0 0 0 0 0 0 0 0 0 0 127 0" result="hardAlpha"/>
<feOffset/>
<feGaussianBlur stdDeviation="7"/>
<feComposite in2="hardAlpha" operator="out"/>
<feColorMatrix type="matrix" values="0 0 0 0 0 0 0 0 0 0 0 0 0 0 0 0 0 0 0.25 0"/>
<feBlend mode="normal" in2="BackgroundImageFix" result="effect1_dropShadow_2_27"/>
<feBlend mode="normal" in="SourceGraphic" in2="effect1_dropShadow_2_27" result="shape"/>
</filter>
</defs>
</svg>
